<svg width="200" height="200" viewBox="0 0 200 200" fill="none" xmlns="http://www.w3.org/2000/svg">
<rect x="1" y="1" width="198" height="198" rx="99" fill="#2C323E"/>
<path d="M99.0788 164.125C117.275 164.125 133.821 160.702 145.874 155.103C157.804 149.562 165.864 141.606 165.864 132.299C165.864 122.992 157.804 115.036 145.874 109.495C133.821 103.896 117.275 100.473 99.0788 100.473C80.883 100.473 64.3367 103.896 52.2832 109.495C40.3538 115.036 32.2935 122.992 32.2935 132.299C32.2935 141.606 40.3538 149.562 52.2832 155.103C64.3367 160.702 80.883 164.125 99.0788 164.125Z" fill="white" stroke="#2C323E" stroke-width="3"/>
<path d="M99.0788 154.016C117.275 154.016 133.821 150.593 145.874 144.994C157.804 139.453 165.864 131.497 165.864 122.19C165.864 112.883 157.804 104.927 145.874 99.386C133.821 93.787 117.275 90.3641 99.0788 90.3641C80.883 90.3641 64.3367 93.787 52.2832 99.386C40.3538 104.927 32.2935 112.883 32.2935 122.19C32.2935 131.497 40.3538 139.453 52.2832 144.994C64.3367 150.593 80.883 154.016 99.0788 154.016Z" fill="white" stroke="#2C323E" stroke-width="3"/>
<rect x="23" y="72.6467" width="20.7446" height="39.2772" rx="9" fill="white" stroke="#2C323E" stroke-width="2"/>
<rect x="154.413" y="72.6467" width="20.7446" height="39.2772" rx="9" fill="white" stroke="#2C323E" stroke-width="2"/>
<path d="M93.7935 26C60.1041 26 32.7935 53.3106 32.7935 87V112.408C32.7935 129.528 46.6727 143.408 63.7935 143.408H134.364C151.485 143.408 165.364 129.528 165.364 112.408V87C165.364 53.3106 138.053 26 104.364 26H93.7935Z" fill="white"/>
<path d="M93.7935 26C60.1041 26 32.7935 53.3106 32.7935 87V112.408C32.7935 129.528 46.6727 143.408 63.7935 143.408H134.364C151.485 143.408 165.364 129.528 165.364 112.408V87C165.364 53.3106 138.053 26 104.364 26H93.7935Z" stroke="url(#paint0_linear_1_2)" stroke-width="2"/>
<path d="M93.7935 26C60.1041 26 32.7935 53.3106 32.7935 87V112.408C32.7935 129.528 46.6727 143.408 63.7935 143.408H134.364C151.485 143.408 165.364 129.528 165.364 112.408V87C165.364 53.3106 138.053 26 104.364 26H93.7935Z" stroke="url(#paint1_linear_1_2)" stroke-width="2"/>
<path d="M48.1141 79.7446C48.1141 63.176 61.5456 49.7446 78.1141 49.7446H120.044C136.612 49.7446 150.043 63.176 150.043 79.7446V104.826C150.043 121.395 136.612 134.826 120.043 134.826H78.1141C61.5456 134.826 48.1141 121.395 48.1141 104.826V79.7446Z" fill="#2C323E"/>
<path d="M50.7989 81.4294C50.7989 65.4131 63.7827 52.4294 79.7989 52.4294H118.196C134.212 52.4294 147.196 65.4131 147.196 81.4293V103.562C147.196 119.579 134.212 132.563 118.196 132.563H79.7989C63.7826 132.563 50.7989 119.579 50.7989 103.563V81.4294Z" stroke="white" stroke-width="2"/>
<path d="M99.0788 122.19L124.977 133.562H73.1804L99.0788 122.19Z" fill="white"/>
<circle cx="77.5978" cy="88.4946" r="7.58152" fill="white"/>
<circle cx="122.245" cy="88.4946" r="7.58152" fill="white"/>
<rect x="1" y="1" width="198" height="198" rx="99" stroke="#2C323E" stroke-width="2"/>
<defs>
<linearGradient id="paint0_linear_1_2" x1="33.7935" y1="84.2826" x2="164.364" y2="84.2826" gradientUnits="userSpaceOnUse">
<stop stop-color="#2C323E"/>
<stop stop-opacity="0"/>
</linearGradient>
<linearGradient id="paint1_linear_1_2" x1="33.7935" y1="91.4429" x2="164.364" y2="91.4429" gradientUnits="userSpaceOnUse">
<stop offset="0.999076" stop-color="#2C323E" stop-opacity="0"/>
<stop offset="1" stop-color="#2C323E"/>
</linearGradient>
</defs>
</svg>
